<?xml version="1.0" encoding="utf-8"?>
<!-- Generator: Adobe Illustrator 13.0.0, SVG Export Plug-In . SVG Version: 6.00 Build 14948)  -->
<!DOCTYPE svg PUBLIC "-//W3C//DTD SVG 1.1//EN" "http://www.w3.org/Graphics/SVG/1.1/DTD/svg11.dtd">
<svg version="1.1" id="Layer_1" xmlns="http://www.w3.org/2000/svg" xmlns:xlink="http://www.w3.org/1999/xlink" x="0px" y="0px"
	 width="153.742px" height="199.901px" viewBox="0 0 153.742 199.901" enable-background="new 0 0 153.742 199.901"
	 xml:space="preserve">
<g>
	<path fill="#849B4D" stroke="#849B4D" d="M98.946,0.625c0.913-0.657,0.375,1.473,0.757,1.945
		c3.655,6.277,6.145,15.549,6.734,25.066c0.103,1.645,0.026,3.496-0.243,5.232c-0.771,4.928-2.459,10.559-4.409,14.879
		c-0.549,1.217-1.816,2.552-2.753,4.044c-3.596,5.733-8.237,10.072-15.242,12.839c-1.929,0.762-5.783,2.621-7.386,2.253
		c-1.949-0.446-4.442-8.087-5.135-10.127c-2.737-8.067-3.652-17.267-1.302-25.596c0.47-1.667,1.493-3.538,2.185-5.405
		c1.829-4.949,4.89-9.254,7.684-12.912C85.622,8.308,91.317,2.631,98.946,0.625z"/>
	<path fill="#F18541" stroke="#F18541" d="M56.875,28.164c1.257,2.717,3.6,4.347,3.229,8.691c-1.618,1.469-2.686,3.438-4.968,3.726
		c-4.867,0.614-9.831-5.745-8.443-9.935C47.875,27.078,51.86,27.803,56.875,28.164z"/>
	<path fill="#F18541" stroke="#F18541" d="M30.369,36.917c1.383,2.241,4.026,4.71,2.483,7.202c-2.403,3.885-9.773,0.291-9.437-3.973
		C23.602,37.762,26.782,35.633,30.369,36.917z"/>
	<path fill="#849B4D" stroke="#849B4D" d="M38.25,43.299c13.841,5.795,22.426,17.115,29.306,30.299
		c2.142,4.104,3.493,8.488,4.719,13.411c1,0.738,2.157,1.319,3.229,1.987C79.35,78.238,88.54,69.281,97.855,62.422
		c1.915,0.389,2.905-0.66,4.223-1.49c-3.008,5.021-6.853,11.174-9.438,18.378c-1.204,3.354-1.921,7.321-2.98,11.175
		c-1.089,3.965-2.442,7.898-2.483,11.675c-0.01,0.914,0.35,1.848,0.249,2.731c-0.741,6.506-9.661,8.513-15.15,10.431
		c-0.306-1.552,1.212-3.139,1.687-4.546c4.044-9.746-1.495-20.826-13.359-20.787C56.217,71.359,49.246,55.316,38.25,43.299z"/>
	<path fill="#849B4D" stroke="#849B4D" d="M46.552,68.932c-8.593,1.828-21.798-0.165-27.856-6.982
		c-3.311-3.726-5.053-7.91-5.92-12.459c0.901,0.527,0.879-0.513,1.78,0.016c4.979-1.693,11.493-1,16.333,0.656
		C39.921,53.252,44.662,60.993,46.552,68.932z"/>
	<path fill="#F4B940" d="M69.391,113.535c0.013,1.133-0.369,3.923,0.863,4.57c8.122-0.48,15.415-3.819,19.158-10.731
		c6.017,3.024,9.866,11.698,8.94,20.365c-0.221,2.07-0.123,5.112-0.992,7.202c-4.108,9.877-14.828,14.744-27.072,16.64
		c-8.428,1.305-20.078,0.507-26.077-3.229c-4.024-2.503-8.115-7.922-8.444-12.913c-0.59-8.971,4.694-15.172,12.17-16.392
		c-1.484-0.799-1.657-2.12-1.541-3.328c3.025-5.297-4.146-7.604-0.944-12.318c-0.073-1.251-1.739-0.91-1.986-1.986
		c1.003-8.222,6.695-8.986,11.673-9.438c5.161-0.469,13.246,1.617,15.201,5.604C73.122,103.252,73.487,107.152,69.391,113.535z"/>
	<path fill="#F18541" stroke="#F18541" d="M43.349,103.273c0.959,0.836-0.681,3.104-0.379,4.101c0.683,2.263,3.285,3.72,2.483,6.458
		c-5.879-0.248-10.35-3.227-10.927-7.947C35.575,103.87,41.279,103.876,43.349,103.273z"/>
	<path stroke="#000000" d="M57.217,105.496c0.561,2.959-3.751,4.654-4.719,2.484C50.75,104.058,56.054,103.053,57.217,105.496z"/>
	<path fill="#327341" d="M122.94,142.393c-1.104,2.326-3.762,2.194-5.713,2.979c-8.394,3.381-14.868,9.288-21.357,14.653
		c-0.107,1.134-0.906,1.579-1.242,2.483c-4.181-0.373-7.011-2.097-9.438-4.223c2.106-4.06,5.646-6.094,10.928-8.94
		c6.338-3.416,13.689-6.912,22.848-7.947C120.977,141.172,122.415,140.813,122.94,142.393z M88.17,158.286
		c1.4,0.752,2.885,1.422,4.47,1.988c4.735-5.861,10.72-10.474,17.386-14.406C101.241,148.51,93.669,152.361,88.17,158.286z"/>
	<path fill-rule="evenodd" clip-rule="evenodd" fill="#FFFFFF" d="M134.364,144.627c0.119,0.75-0.885,0.577-1.242,0.745
		c-4.318,2.044-9.656,4.196-13.907,6.955c-5.724,3.711-11.125,8.217-14.901,13.658c-1.191-0.299-1.479-1.501-2.731-1.738
		C109.131,154.329,120.735,148.466,134.364,144.627z"/>
	<path fill="#FFFFFF" d="M110.026,145.868c-6.666,3.933-12.65,8.545-17.386,14.406c-1.585-0.566-3.069-1.236-4.47-1.988
		C93.669,152.361,101.241,148.51,110.026,145.868z"/>
	<path fill-rule="evenodd" clip-rule="evenodd" fill="#327341" stroke="#327341" d="M150.258,148.104
		c0.891,3.137-4.591,4.38-7.201,5.713c-2.672,1.363-5.008,2.943-6.707,4.223c-3.896,2.933-9.658,6.256-12.168,9.686
		c-2.713,3.702-2.298,7.499-6.458,10.431c-2.362-1.775-4.643-3.634-6.457-5.96c4.688-6.933,11.055-12.323,19.123-16.641
		C136.6,152.231,141.843,148.612,150.258,148.104z M115.241,169.464c-0.114,1.376-1.308,1.672-1.49,2.979
		c1.568,1.164,3.134,2.33,4.222,3.973c2.472-11.949,13.623-17.657,20.862-22.848C129.292,157.341,122.129,163.506,115.241,169.464z"
		/>
	<path fill="#327341" stroke="#327341" d="M4.474,156.548c0.23-1.27,0.449-1.75,0.497-2.731c14.841,0.58,27.916,7.104,39.24,13.658
		c2.068,1.198,4.466,3.063,6.457,4.721c5.712,4.754,12.994,10.296,17.881,15.397c1.349,1.407,2.338,3.086,3.726,4.471
		c1.243,1.239,3.396,2.301,2.98,4.471c-4.794,1.403-12.527-1.348-17.882-0.994c-0.625-0.865-1.427-1.553-1.738-2.731
		c-4.377-2.641-6.891-7.453-10.68-10.928c-4.325-3.966-9.629-6.947-13.411-10.927c-0.166-0.174-1.128,0.015-0.498-0.746
		c-3.169-1.063-6.82-3.769-9.686-5.961c-4.145-1.566-7.592-3.831-11.176-5.961c-1.186,0.553-2.793-0.655-4.719-0.745
		C5.66,156.687,5.329,156.355,4.474,156.548z M57.871,192.56c3.71,0.598,8.293,1.531,12.417,1.739
		c-13.81-15.58-31.178-29.753-54.639-36.509c-0.192,0.057-0.49,0.008-0.496,0.249C32.308,166.629,46.507,178.177,57.871,192.56z"/>
	<path fill="#327341" stroke="#327341" d="M97.608,193.554c-4.283,1.843-10.064,2.188-15.896,2.483
		c-11.136-19.438-30.46-31.924-52.899-39.24c0.22-1.018-0.218-1.953,0.497-1.987c1.459-0.789,6.696-0.66,9.189-0.248
		c12.79,2.116,23.632,9.055,33.776,15.397c5.007,3.13,9.878,6.699,14.156,10.433C90.983,184.361,95.784,188.242,97.608,193.554z
		 M63.582,172.195c8.128,5.839,13.777,13.962,20.118,21.606c3.798-0.882,6.73-0.245,10.431-1.242
		c-6.291-8.99-15.552-15.459-24.835-21.605c-9.303-6.162-20.179-11.608-32.783-13.413C47.079,160.639,55.612,166.467,63.582,172.195
		z"/>
	<path fill="#327341" stroke="#327341" d="M116.482,186.848c-0.72,2.416-3.218,2.004-5.464,2.483
		c-2.605,0.558-4.64,2.056-6.457,2.98c-8.275-12.42-18.978-22.415-34.025-28.064c-0.017-0.729-0.758-0.73-0.993-1.241
		c-4.113-1.02-8.387-3.393-12.666-4.472c-1.708-0.431-4.036,0.233-4.967-1.737c0.357-0.057,0.086-0.741,0.496-0.745
		c0.327-0.089,0.391-0.438,0.745-0.497c14.909,1.372,29.048,5.303,39.489,11.424c6.684,3.92,13.045,8.897,18.378,14.406
		C112.807,183.229,115.159,184.638,116.482,186.848z M96.614,177.41c3.404,3.64,5.768,7.961,9.438,11.424
		c2.11-1.233,4.133-1.271,6.457-1.986c-11.193-11.169-23.807-22.199-41.475-25.332C80.616,165.886,89.905,170.238,96.614,177.41z"/>
	<path fill="#FFFFFF" d="M28.689,153.892c12.604,1.805,31.303,10.9,40.606,17.063c9.284,6.146,18.544,12.615,24.835,21.605
		c-3.7,0.997-6.633,0.36-10.431,1.242c-6.34-7.645-11.989-15.768-20.118-21.606C55.612,166.467,39.256,156.99,28.689,153.892z"/>
	<path fill="#FFFFFF" d="M15.153,158.039c0.006-0.241-3.56-2.366-3.367-2.422c23.461,6.756,44.692,23.102,58.502,38.682
		c-4.124-0.208-8.707-1.142-12.417-1.739C46.507,178.177,32.308,166.629,15.153,158.039z"/>
	<path fill="#FFFFFF" d="M71.033,161.516c17.668,3.133,30.282,14.163,41.475,25.332c-2.324,0.715-4.347,0.753-6.457,1.986
		c-3.67-3.463-6.033-7.784-9.438-11.424C89.905,170.238,80.616,165.886,71.033,161.516z"/>
	<path fill="#849B4D" d="M96.159,84.848c0.85-3.975,2.385-6.156,3.303-10.088c1.698-2.632,3.107-4.775,4.401-7.52
		c1.722-1.582,3.865-2.738,5.503-4.403c6.979-3.337,16.947-2.789,23.846-0.184c-2.082,4.698-5.686,9.485-8.621,13.023
		c-3.525,4.251-8.525,8.789-14.857,10.272C105.635,86.908,100.71,85.759,96.159,84.848z"/>
	<path fill-rule="evenodd" clip-rule="evenodd" fill="#FFFFFF" d="M138.834,153.568c-7.239,5.19-18.391,10.898-20.862,22.848
		c-1.088-1.643-3.378-3.192-4.946-4.356c0.183-1.309,1.782-1.38,2.215-2.596C122.129,163.506,129.292,157.341,138.834,153.568z"/>
	<path fill="#327341" stroke="#327341" d="M153.239,145.62c-0.383,6.158-1.916,11.527-4.471,16.393
		c-4.998,9.52-10.069,16.441-18.627,23.096c-3.955,3.078-8.305,6.4-12.666,7.948c-5.551,1.972-12.033,3.157-18.378,4.719
		c-6.815,1.678-13.609,1.992-20.612,1.242c-6.819-0.731-13.636-0.879-20.118-2.235c-11.873-2.486-21.829-6.001-31.044-11.177
		c-3.951-2.218-7.229-5.671-10.183-8.941c-2.941-3.255-5.828-7.1-8.444-10.927c-4.166-6.093-8.211-12.146-8.196-21.11
		c3.727-1.871,9.161-1.861,14.405-1.985c6.583-0.159,9.446-0.369,16.026,0.902c1.381,0.269,3.915,1.729,4.771,2.07
		c1.471,0.587,1.791,0.979,2.989,2.07c1.625,1.478,5.691,3.362,7.258,4.393c11.61,4.072,27.997,3.514,39.24-0.745
		c2.178-0.824,3.69-1.98,5.712-2.98c2.808-2.162,4.399-3.877,5.96-6.457c5.068-0.707,10.018-2.599,16.144-2.98
		c1.966-0.12,4.298-0.048,5.96-0.248c12.051-1.447,22.992,2.741,31.542,4.721C152.09,144.02,153.307,143.892,153.239,145.62z
		 M5.467,157.541c1.926,0.09,3.533,1.298,4.719,0.745c3.584,2.13,7.031,4.395,11.176,5.961c2.865,2.192,6.517,4.897,9.686,5.961
		c-0.631,0.761,0.332,0.572,0.498,0.746c3.782,3.979,9.086,6.961,13.411,10.927c3.789,3.475,6.303,8.287,10.68,10.928
		c0.312,1.179,1.114,1.866,1.738,2.731c5.355-0.354,13.088,2.397,17.882,0.994c0.416-2.17-1.738-3.231-2.98-4.471
		c-1.388-1.385-2.377-3.063-3.726-4.471c-4.887-5.102-12.169-10.644-17.881-15.397c-1.991-1.657-4.389-3.522-6.457-4.721
		c-11.324-6.555-24.399-13.078-39.24-13.658c-0.048,0.981-0.267,1.462-0.497,2.731C5.329,156.355,5.66,156.687,5.467,157.541z
		 M118.965,141.398c-9.158,1.035-16.51,4.531-22.848,7.947c-5.281,2.847-8.821,4.881-10.928,8.94
		c2.427,2.126,5.257,3.85,9.438,4.223c0.336-0.904,1.135-1.35,1.242-2.483c6.489-5.365,12.964-11.272,21.357-14.653
		c1.951-0.785,4.609-0.653,5.713-2.979C122.415,140.813,120.977,141.172,118.965,141.398z M133.868,142.393
		c-10.91,1.126-21.124,7.335-28.313,13.907c-1.873,1.713-6.828,5.334-6.458,7.699c0.326,2.084,5.735,4.978,7.202,5.465
		c3.627-6.629,9.395-12.283,15.895-16.145c5.871-3.487,13.057-5.229,19.621-8.195C142.075,141.382,136.975,142.071,133.868,142.393z
		 M130.39,155.555c-8.068,4.317-14.435,9.708-19.123,16.641c1.814,2.326,4.095,4.185,6.457,5.96
		c4.16-2.932,3.745-6.729,6.458-10.431c2.51-3.43,8.271-6.753,12.168-9.686c1.699-1.279,4.035-2.859,6.707-4.223
		c2.61-1.333,8.092-2.576,7.201-5.713C141.843,148.612,136.6,152.231,130.39,155.555z M86.431,180.392
		c-4.278-3.733-9.149-7.303-14.156-10.433c-10.145-6.343-20.986-13.281-33.776-15.397c-2.493-0.412-7.729-0.541-9.189,0.248
		c-0.714,0.034-0.277,0.97-0.497,1.987c22.439,7.316,41.763,19.802,52.899,39.24c5.831-0.296,11.612-0.641,15.896-2.483
		C95.784,188.242,90.983,184.361,86.431,180.392z M111.018,181.385c-5.333-5.509-11.694-10.486-18.378-14.406
		c-10.44-6.121-24.58-10.052-39.489-11.424c-0.354,0.06-0.418,0.408-0.745,0.497c-0.41,0.004-0.139,0.688-0.496,0.745
		c0.931,1.971,3.259,1.307,4.967,1.737c4.279,1.079,8.553,3.452,12.666,4.472c0.235,0.511,0.977,0.513,0.993,1.241
		c15.047,5.649,25.75,15.645,34.025,28.064c1.817-0.925,3.852-2.423,6.457-2.98c2.246-0.479,4.744-0.067,5.464-2.483
		C115.159,184.638,112.807,183.229,111.018,181.385z"/>
	<path fill-rule="evenodd" clip-rule="evenodd" fill="#327341" stroke="#327341" d="M141.815,145.124
		c-6.564,2.966-13.75,4.708-19.621,8.195c-6.5,3.861-12.268,9.516-15.895,16.145c-1.467-0.487-6.876-3.381-7.202-5.465
		c-0.37-2.365,4.585-5.986,6.458-7.699c7.188-6.572,17.402-12.781,28.313-13.907C136.975,142.071,142.075,141.382,141.815,145.124z
		 M101.582,164.247c1.252,0.237,1.54,1.439,2.731,1.738c3.776-5.441,9.178-9.947,14.901-13.658
		c4.251-2.759,9.589-4.911,13.907-6.955c0.357-0.168,1.361,0.005,1.242-0.745C120.735,148.466,109.131,154.329,101.582,164.247z"/>
	<path fill="none" stroke="#000000" d="M60.854,90.165"/>
</g>
</svg>
