<?xml version="1.0" encoding="utf-8"?>
<!-- Generator: Adobe Illustrator 13.0.0, SVG Export Plug-In . SVG Version: 6.00 Build 14948)  -->
<!DOCTYPE svg PUBLIC "-//W3C//DTD SVG 1.1//EN" "http://www.w3.org/Graphics/SVG/1.1/DTD/svg11.dtd">
<svg version="1.1" xmlns="http://www.w3.org/2000/svg" xmlns:xlink="http://www.w3.org/1999/xlink" x="0px" y="0px"
	 width="986.973px" height="132.519px" viewBox="0 0 986.973 132.519" enable-background="new 0 0 986.973 132.519"
	 xml:space="preserve">
<g id="Layer_1">
	<g>
		<rect x="1.836" y="38.917" fill="#FFFFFF" width="130.464" height="54.9"/>
		<polygon fill="#66BC7E" points="1.207,93.5 1.207,93.5 39.71,132.003 78.225,93.5 		"/>
		<g>
			<g>
				<polygon fill="#156D6A" points="132.717,39.021 78.225,93.5 39.71,132.003 39.726,132.019 94.202,132.019 132.721,93.5 
					132.721,39.025 				"/>
			</g>
		</g>
		<polygon fill="#156D6A" points="132.721,39.021 132.721,39.02 94.218,0.517 55.703,39.021 		"/>
		<g>
			<g>
				<polygon fill="#66BC7E" points="94.202,0.5 39.726,0.5 1.207,39.02 1.207,93.495 1.21,93.5 55.703,39.021 94.218,0.517 				"/>
			</g>
		</g>
	</g>
	<g>
		<path fill="#66BC7E" d="M166.315,24.135h50.503l-3.383,14.741h-14.256l-16.312,70.559h-20.781l16.311-70.559h-15.586
			L166.315,24.135z"/>
		<path fill="#66BC7E" d="M229.507,57.603c5.317-10.15,9.304-12.446,19.453-14.017l-4.833,18.003
			c-1.329-0.121-2.658-0.121-3.987-0.121c-10.633,0-12.565,4.591-15.344,16.431l-7.249,31.536h-19.09l14.981-64.76h19.089
			L229.507,57.603z"/>
		<path fill="#66BC7E" d="M272.763,44.675l-9.787,42.285c-0.724,3.021-1.086,4.712-1.086,6.163c0,3.263,2.295,4.71,4.59,4.71
			c5.195,0,6.767-6.161,7.733-10.389L284,44.675h19.452l-14.983,64.76h-19.331l1.45-6.769c-3.021,3.142-7.732,7.975-16.431,7.975
			c-4.713,0-12.686-1.692-12.686-11.719c0-1.21,0.12-3.747,0.965-7.25l10.753-46.997H272.763z"/>
		<path fill="#66BC7E" d="M320.008,87.324c-0.604,1.934-1.329,4.23-1.329,6.402c0,3.384,2.779,4.107,4.833,4.107
			c0.604,0,2.175,0,3.503-0.846c2.295-1.568,2.78-4.831,2.78-6.523c0-2.417-0.967-3.382-2.417-4.59
			c-1.813-1.571-12.083-8.94-12.325-9.183c-4.47-3.505-7.128-7.009-7.128-11.962c0-3.746,1.813-9.304,3.262-11.96
			c3.504-6.283,11.72-9.545,22.23-9.545c12.687,0,22.472,4.954,22.472,14.861c0,2.295-0.482,4.471-0.966,6.645h-18.243
			c0.361-1.208,1.086-3.866,1.086-5.196c0-0.482-0.121-3.624-4.833-3.624c-5.799,0-5.799,6.041-5.799,6.283
			c0,2.296,1.329,3.504,3.745,5.315c0.121,0.121,6.041,4.229,6.765,4.833c8.216,5.679,12.324,8.58,12.324,15.585
			c0,3.987-1.691,11.236-4.953,15.225c-3.141,3.866-9.787,7.61-21.144,7.61c-9.183,0-13.17-1.69-14.982-2.536
			c-6.161-2.779-8.94-6.646-8.94-12.928c0-3.02,0.724-5.437,1.449-7.974H320.008z"/>
		<path fill="#66BC7E" d="M377.038,24.014h18.968l-4.832,20.662h8.578l-2.779,11.598h-8.457l-7.853,33.709
			c-0.242,1.087-0.484,2.656-0.484,3.744c0,3.384,2.417,3.384,7.854,3.384l-2.779,12.325c-16.914,0-25.734,0-25.734-9.666
			c0-2.057,0.362-3.628,1.087-6.284l8.941-37.212h-7.733l2.659-11.598h7.854L377.038,24.014z"/>
		<path fill="#66BC7E" d="M488.074,56.515H468.26l2.296-10.028c0.242-0.846,0.363-1.811,0.363-2.778
			c0-4.832-3.625-5.438-6.404-5.438c-4.952,0-5.92,2.416-6.887,5.075l-10.149,43.737c-0.363,1.448-0.724,3.021-0.724,4.472
			c0,4.228,4.107,4.711,5.919,4.711c5.316,0,6.645-3.627,7.25-5.317c1.45-4.107,2.537-9.063,3.504-13.652h21.144l-3.021,12.324
			c-3.745,15.343-9.062,21.507-29.964,21.507c-5.436,0-10.389-0.485-14.617-2.178c-4.23-1.69-10.995-5.919-10.995-14.739
			c0-1.328,0-3.988,1.932-11.961l8.214-35.883c2.66-11.72,5.921-16.069,9.546-18.728c5.679-4.228,15.223-4.953,20.539-4.953
			c5.195,0,11.719,0.725,15.949,2.537c4.108,1.813,9.182,5.558,9.182,14.74c0,1.813-0.241,3.867-0.725,6.041L488.074,56.515z"/>
		<path fill="#66BC7E" d="M545.71,60.742c0,6.766-5.197,28.273-7.008,33.829c-2.294,6.77-6.042,16.313-25.371,16.313
			c-14.5,0-23.802-4.834-23.802-17.52c0-7.009,5.438-28.393,6.524-31.776c2.055-6.886,6.162-18.605,24.769-18.605
			C530.487,42.983,545.71,44.554,545.71,60.742z M526.621,63.281c0.241-0.846,0.361-1.692,0.361-2.539
			c0.121-3.139-2.296-4.832-5.195-4.832c-5.193,0-6.283,4.47-6.887,7.371l-6.041,25.856c-0.24,1.084-0.483,2.417-0.483,3.744
			c0,2.538,1.451,4.952,5.195,4.952c5.196,0,6.162-4.229,7.25-8.696L526.621,63.281z"/>
		<path fill="#66BC7E" d="M560.573,44.675h19.213l-14.982,64.76h-19.089L560.573,44.675z M584.497,24.135l-3.263,14.499h-19.208
			l3.382-14.499H584.497z"/>
		<path fill="#66BC7E" d="M625.578,109.435h-19.211l10.392-45.551c0.362-1.449,0.362-2.537,0.362-3.02
			c0-4.591-3.988-4.591-4.471-4.591c-5.558,0-6.888,5.8-7.248,7.732l-10.513,45.43h-18.847l14.858-64.76h18.971l-1.571,6.403
			c7.248-7.612,15.103-7.854,17.156-7.854c3.624,0,12.081,1.208,12.081,11.72c0,2.295-0.361,4.35-0.845,6.284L625.578,109.435z"/>
		<path fill="#156D6A" d="M716.563,24.135h24.888l-3.986,65.363c1.088-4.713,2.899-12.806,5.679-21.265l14.497-44.098h20.658
			l-31.29,85.3h-25.855c0.727-17.881,0.846-21.509,1.209-32.381c0.241-11.599,0.603-16.674,1.934-31.292
			c-4.11,13.169-4.954,15.222-12.809,34.07l-12.443,29.603h-26.46l7.612-85.3h20.297l-4.107,29.359
			c-0.361,2.295-1.813,13.29-2.175,15.705c-1.569,11.358-2.658,16.07-3.867,21.508c2.056-6.283,3.506-10.149,4.109-11.721
			L716.563,24.135z"/>
		<path fill="#156D6A" d="M813.586,102.064c-0.12,0.966-0.363,1.932-0.363,2.898c0,2.9,0.847,3.505,1.811,4.473h-21.988l1.693-6.769
			c-4.35,3.746-9.787,8.46-17.399,8.46c-1.327,0-12.806,0-12.806-11.723c0-3.984,2.537-15.342,6.523-19.935
			c3.987-4.592,9.787-6.282,32.381-12.807c0.604-2.537,1.448-6.644,1.448-7.611c0-3.382-3.141-3.625-5.194-3.625
			c-5.437,0-6.403,2.9-8.215,9.424H773.11c2.778-11.235,4.229-14.98,10.149-18.001c4.469-2.295,10.631-3.382,17.398-3.382
			c11.114,0,22.595,2.779,22.595,14.137c0,2.416-0.486,4.832-1.088,7.247L813.586,102.064z M800.658,79.106
			c-4.35,1.33-9.906,3.022-12.204,4.833c-3.14,2.539-3.986,9.426-3.986,10.632c0,2.176,0.967,3.987,4.229,3.987
			c3.383,0,5.919-2.052,7.973-3.865L800.658,79.106z"/>
		<path fill="#156D6A" d="M842.222,24.135h19.331l-19.695,85.3h-19.328L842.222,24.135z"/>
		<path fill="#156D6A" d="M872.429,24.135h19.332l-19.694,85.3h-19.33L872.429,24.135z"/>
		<path fill="#156D6A" d="M938.64,88.531c-1.207,4.834-2.536,10.512-6.524,14.86c-3.865,4.472-10.27,7.735-21.627,7.735
			c-3.262,0-12.323-0.485-18.001-4.954c-2.778-2.177-5.315-5.559-5.315-12.446c0-8.577,6.161-32.378,8.215-37.211
			c2.175-5.195,7.249-13.411,24.889-13.411c7.731,0,22.835,1.45,22.835,15.828c0,2.657-0.482,5.436-1.087,8.216
			c-0.967,4.712-1.933,9.06-3.141,14.498h-30.931c-0.966,3.743-2.173,9.061-2.173,11.839c0,0.604,0.119,1.33,0.36,1.935
			c0.847,1.448,2.777,2.414,5.315,2.414c5.438,0,6.162-3.744,7.491-9.303H938.64z M923.055,69.805
			c0.483-2.054,1.691-7.129,1.691-8.821c0-1.208-0.241-2.416-0.967-3.261c-1.208-1.45-3.383-1.691-4.59-1.691
			c-5.921,0-6.768,4.348-8.58,13.773H923.055z"/>
		<path fill="#156D6A" d="M964.258,24.014h18.97l-4.834,20.662h8.579l-2.778,11.598h-8.457l-7.854,33.709
			c-0.239,1.087-0.482,2.656-0.482,3.744c0,3.384,2.416,3.384,7.853,3.384l-2.777,12.325c-16.917,0-25.736,0-25.736-9.666
			c0-2.057,0.363-3.628,1.089-6.284l8.939-37.212h-7.731l2.658-11.598h7.853L964.258,24.014z"/>
	</g>
</g>
<g id="Layer_2" display="none">
	<g display="inline">
		<rect x="57.831" y="41.732" fill="#FFFFFF" width="114.034" height="47.985"/>
		<polygon fill="#66BC7E" points="57.281,89.44 57.281,89.441 90.935,123.094 124.599,89.44 		"/>
		<g>
			<g>
				<polygon fill="#156D6A" points="172.229,41.823 124.599,89.44 90.935,123.094 90.949,123.109 138.564,123.109 172.232,89.441 
					172.232,41.826 				"/>
			</g>
		</g>
		<polygon fill="#156D6A" points="172.232,41.822 172.232,41.821 138.578,8.168 104.914,41.822 		"/>
		<g>
			<g>
				<polygon fill="#66BC7E" points="138.564,8.153 90.949,8.153 57.281,41.821 57.281,89.436 57.284,89.44 104.914,41.822 
					138.578,8.168 				"/>
			</g>
		</g>
	</g>
	<g display="inline">
		<path fill="#66BC7E" d="M248.326,44.703h-19.57v58.52h-11.305v-58.52h-19.522v-9.595h50.397V44.703z"/>
		<path fill="#66BC7E" d="M277.348,65.08c-1.329-1.045-3.246-1.567-5.747-1.567c-3.262,0-5.985,1.473-8.17,4.418
			s-3.277,6.951-3.277,12.018v23.274h-11.02v-48.64h11.02v10.022h0.189c1.076-3.42,2.731-6.087,4.964-8.004
			c2.232-1.915,4.727-2.873,7.481-2.873c1.995,0,3.515,0.301,4.56,0.902V65.08z"/>
		<path fill="#66BC7E" d="M327.556,103.222h-11.021v-7.695h-0.189c-3.199,5.891-8.17,8.835-14.915,8.835
			c-11.495,0-17.242-6.902-17.242-20.709v-29.07h11.02v27.93c0,8.74,3.373,13.11,10.117,13.11c3.262,0,5.945-1.203,8.052-3.61
			c2.105-2.406,3.158-5.558,3.158-9.452V54.583h11.021V103.222z"/>
		<path fill="#66BC7E" d="M338.86,101.703V91.49c4.116,3.135,8.66,4.702,13.632,4.702c6.65,0,9.975-1.963,9.975-5.89
			c0-1.108-0.284-2.05-0.854-2.826c-0.57-0.775-1.338-1.464-2.304-2.066c-0.967-0.601-2.106-1.14-3.42-1.615
			c-1.314-0.475-2.779-1.013-4.394-1.614c-1.995-0.791-3.793-1.631-5.392-2.518c-1.6-0.887-2.93-1.892-3.99-3.017
			c-1.061-1.123-1.86-2.398-2.398-3.823c-0.539-1.425-0.808-3.088-0.808-4.987c0-2.344,0.554-4.41,1.663-6.199
			c1.107-1.788,2.596-3.293,4.465-4.513c1.868-1.219,3.989-2.137,6.364-2.755c2.375-0.617,4.829-0.926,7.363-0.926
			c4.496,0,8.518,0.681,12.064,2.042v9.643c-3.42-2.343-7.347-3.515-11.78-3.515c-1.394,0-2.652,0.143-3.775,0.428
			c-1.125,0.284-2.083,0.681-2.874,1.188c-0.792,0.507-1.409,1.116-1.853,1.828c-0.444,0.713-0.665,1.496-0.665,2.352
			c0,1.045,0.221,1.932,0.665,2.66c0.443,0.729,1.1,1.37,1.971,1.924s1.916,1.061,3.136,1.52c1.219,0.459,2.619,0.958,4.203,1.496
			c2.09,0.855,3.967,1.727,5.629,2.612c1.662,0.887,3.079,1.893,4.251,3.017s2.074,2.423,2.708,3.895
			c0.633,1.473,0.95,3.223,0.95,5.249c0,2.47-0.57,4.624-1.71,6.46c-1.141,1.837-2.66,3.356-4.561,4.56
			c-1.899,1.204-4.093,2.099-6.578,2.685c-2.486,0.585-5.106,0.878-7.861,0.878C347.362,104.362,342.755,103.475,338.86,101.703z"/>
		<path fill="#66BC7E" d="M409.491,102.7c-2.154,1.076-4.987,1.615-8.503,1.615c-9.437,0-14.154-4.528-14.154-13.585V63.228h-8.123
			v-8.646h8.123V43.326l11.02-3.136v14.393h11.638v8.646h-11.638v24.319c0,2.882,0.522,4.939,1.567,6.175s2.786,1.853,5.226,1.853
			c1.868,0,3.482-0.538,4.845-1.615V102.7z"/>
		<path fill="#66BC7E" d="M484.469,100.373c-5.13,2.659-11.512,3.989-19.143,3.989c-9.88,0-17.797-3.118-23.75-9.357
			c-5.953-6.237-8.93-14.423-8.93-24.557c0-10.894,3.349-19.696,10.046-26.41c6.697-6.713,15.16-10.069,25.389-10.069
			c6.586,0,12.049,0.934,16.388,2.802v11.21c-4.592-2.723-9.659-4.085-15.2-4.085c-7.379,0-13.355,2.359-17.931,7.078
			c-4.576,4.719-6.864,11.02-6.864,18.904c0,7.505,2.138,13.482,6.413,17.931c4.274,4.45,9.896,6.674,16.862,6.674
			c6.428,0,12.001-1.52,16.72-4.56V100.373z"/>
		<path fill="#66BC7E" d="M517.718,104.362c-7.505,0-13.498-2.271-17.979-6.815c-4.481-4.544-6.722-10.569-6.722-18.074
			c0-8.17,2.335-14.55,7.007-19.142c4.67-4.592,10.964-6.888,18.881-6.888c7.6,0,13.521,2.232,17.765,6.697
			c4.243,4.465,6.365,10.656,6.365,18.572c0,7.759-2.288,13.973-6.864,18.644S525.443,104.362,517.718,104.362z M518.24,62.23
			c-4.307,0-7.711,1.505-10.213,4.513c-2.501,3.009-3.752,7.156-3.752,12.444c0,5.1,1.266,9.113,3.8,12.042
			c2.533,2.929,5.921,4.394,10.165,4.394c4.338,0,7.671-1.44,9.999-4.323c2.327-2.881,3.491-6.982,3.491-12.302
			c0-5.352-1.164-9.483-3.491-12.397C525.911,63.687,522.578,62.23,518.24,62.23z"/>
		<path fill="#66BC7E" d="M559.802,44.371c-1.805,0-3.349-0.586-4.631-1.758c-1.282-1.171-1.924-2.66-1.924-4.465
			s0.642-3.309,1.924-4.513c1.282-1.203,2.826-1.805,4.631-1.805c1.868,0,3.451,0.602,4.75,1.805
			c1.299,1.204,1.948,2.708,1.948,4.513c0,1.71-0.649,3.175-1.948,4.394C563.253,43.761,561.67,44.371,559.802,44.371z
			 M565.265,103.222h-11.02v-48.64h11.02V103.222z"/>
		<path fill="#66BC7E" d="M622.977,103.222h-11.021V75.815c0-9.088-3.214-13.633-9.642-13.633c-3.357,0-6.128,1.259-8.313,3.776
			c-2.186,2.518-3.277,5.692-3.277,9.524v27.739h-11.067v-48.64h11.067v8.075h0.189c3.642-6.144,8.898-9.215,15.77-9.215
			c5.288,0,9.326,1.718,12.113,5.153c2.786,3.437,4.18,8.4,4.18,14.892V103.222z"/>
		<path fill="#156D6A" d="M741.898,35.108l-18.667,68.114h-12.777l-12.968-47.642c-0.539-2.026-0.871-4.243-0.998-6.65h-0.189
			c-0.159,2.249-0.539,4.434-1.14,6.555l-13.016,47.737h-13.062l-19.048-68.114h12.397l12.35,49.874
			c0.507,2.091,0.823,4.275,0.95,6.556h0.237c0.126-1.615,0.57-3.8,1.33-6.556l13.965-49.874h11.638l12.92,50.255
			c0.442,1.71,0.775,3.736,0.997,6.079h0.19c0.095-1.583,0.458-3.673,1.092-6.27l12.113-50.064H741.898z"/>
		<path fill="#156D6A" d="M783.697,103.222H773.01v-7.6h-0.189c-3.357,5.826-8.281,8.739-14.772,8.739
			c-4.782,0-8.526-1.298-11.233-3.895c-2.708-2.597-4.062-6.032-4.062-10.308c0-9.183,5.288-14.535,15.865-16.055l14.439-2.043
			c0-6.935-3.294-10.402-9.88-10.402c-5.795,0-11.02,1.995-15.675,5.985v-9.643c5.13-3.04,11.051-4.56,17.765-4.56
			c12.286,0,18.43,6.049,18.43,18.145V103.222z M773.058,79.33l-10.213,1.426c-3.166,0.411-5.55,1.18-7.148,2.304
			c-1.6,1.124-2.398,3.095-2.398,5.913c0,2.059,0.736,3.745,2.209,5.059c1.472,1.314,3.443,1.972,5.913,1.972
			c3.356,0,6.135-1.18,8.337-3.539c2.2-2.358,3.301-5.327,3.301-8.906V79.33z"/>
		<path fill="#156D6A" d="M808.208,103.222h-11.067V31.213h11.067V103.222z"/>
		<path fill="#156D6A" d="M833.62,103.222h-11.067V31.213h11.067V103.222z"/>
		<path fill="#156D6A" d="M889.146,81.895h-33.154c0.126,4.497,1.512,7.964,4.156,10.402c2.644,2.438,6.277,3.657,10.9,3.657
			c5.193,0,9.959-1.551,14.298-4.655v8.883c-4.434,2.787-10.292,4.18-17.575,4.18c-7.156,0-12.77-2.208-16.838-6.626
			c-4.07-4.417-6.104-10.632-6.104-18.644c0-7.568,2.24-13.734,6.722-18.501c4.48-4.766,10.046-7.148,16.696-7.148
			c6.649,0,11.795,2.138,15.437,6.412c3.642,4.275,5.463,10.213,5.463,17.813V81.895z M878.507,74.105
			c-0.032-3.958-0.967-7.037-2.803-9.238c-1.837-2.201-4.37-3.302-7.6-3.302c-3.167,0-5.851,1.156-8.052,3.468
			s-3.555,5.336-4.061,9.072H878.507z"/>
		<path fill="#156D6A" d="M925.294,102.7c-2.154,1.076-4.987,1.615-8.503,1.615c-9.437,0-14.154-4.528-14.154-13.585V63.228h-8.123
			v-8.646h8.123V43.326l11.02-3.136v14.393h11.638v8.646h-11.638v24.319c0,2.882,0.522,4.939,1.567,6.175s2.786,1.853,5.226,1.853
			c1.868,0,3.482-0.538,4.845-1.615V102.7z"/>
	</g>
</g>
</svg>
