<?xml version="1.0" encoding="utf-8"?>
<!-- Generator: Adobe Illustrator 13.0.0, SVG Export Plug-In  -->
<!DOCTYPE svg PUBLIC "-//W3C//DTD SVG 1.1//EN" "http://www.w3.org/Graphics/SVG/1.1/DTD/svg11.dtd" [
	<!ENTITY ns_flows "http://ns.adobe.com/Flows/1.0/">
]>
<svg version="1.1"
	 xmlns="http://www.w3.org/2000/svg" xmlns:xlink="http://www.w3.org/1999/xlink" xmlns:a="http://ns.adobe.com/AdobeSVGViewerExtensions/3.0/"
	 x="0px" y="0px" width="1144px" height="498px" viewBox="-0.532 -0.878 1144 498" enable-background="new -0.532 -0.878 1144 498"
	 xml:space="preserve">
<defs>
</defs>
<rect x="2.379" y="145.17" fill="#FFFFFF" width="492.999" height="207.457"/>
<polygon fill="#66BC7E" points="0,351.427 0,351.43 145.496,496.925 291.034,351.427 "/>
<g>
	<g>
		<polygon fill="#156D6A" points="496.952,145.565 291.034,351.427 145.496,496.925 145.556,496.986 351.409,496.986 
			496.966,351.43 496.966,145.58 		"/>
	</g>
</g>
<polygon fill="#156D6A" points="496.966,145.563 496.966,145.558 351.471,0.065 205.93,145.563 "/>
<g>
	<g>
		<polygon fill="#66BC7E" points="351.409,0 145.556,0 0,145.558 0,351.408 0.013,351.427 205.93,145.563 351.471,0.065 		"/>
	</g>
</g>
<path fill="#66BC7E" d="M521.991,126.272h66.504l-4.455,19.411h-18.773l-21.479,92.914h-27.365l21.479-92.914h-20.525
	L521.991,126.272z"/>
<path fill="#66BC7E" d="M605.203,170.344c7.003-13.365,12.252-16.39,25.615-18.459l-6.362,23.707c-1.75-0.159-3.5-0.159-5.251-0.159
	c-14.002,0-16.546,6.046-20.204,21.638l-9.546,41.526h-25.139l19.728-85.278h25.137L605.203,170.344z"/>
<path fill="#66BC7E" d="M662.164,153.319l-12.887,55.683c-0.955,3.979-1.432,6.206-1.432,8.115c0,4.298,3.022,6.203,6.045,6.203
	c6.842,0,8.91-8.112,10.183-13.681l12.889-56.32h25.615l-19.731,85.278h-25.454l1.908-8.913
	c-3.978,4.137-10.18,10.501-21.635,10.501c-6.207,0-16.706-2.229-16.706-15.431c0-1.594,0.158-4.935,1.271-9.547l14.16-61.889
	H662.164z"/>
<path fill="#66BC7E" d="M724.377,209.48c-0.796,2.546-1.75,5.572-1.75,8.43c0,4.457,3.658,5.41,6.365,5.41
	c0.795,0,2.864,0,4.612-1.113c3.021-2.066,3.661-6.362,3.661-8.591c0-3.183-1.273-4.453-3.183-6.044
	c-2.388-2.068-15.911-11.773-16.229-12.092c-5.887-4.615-9.386-9.229-9.386-15.752c0-4.932,2.386-12.25,4.296-15.75
	c4.613-8.274,15.433-12.57,29.273-12.57c16.706,0,29.593,6.523,29.593,19.57c0,3.022-0.636,5.886-1.272,8.75h-24.023
	c0.476-1.591,1.431-5.09,1.431-6.842c0-0.634-0.16-4.771-6.364-4.771c-7.636,0-7.636,7.955-7.636,8.273c0,3.023,1.751,4.614,4.933,7
	c0.159,0.159,7.954,5.568,8.907,6.364c10.82,7.478,16.229,11.299,16.229,20.522c0,5.25-2.227,14.796-6.522,20.047
	c-4.137,5.092-12.888,10.023-27.843,10.023c-12.092,0-17.342-2.227-19.728-3.34c-8.114-3.66-11.773-8.751-11.773-17.023
	c0-3.977,0.954-7.159,1.908-10.5H724.377z"/>
<path fill="#66BC7E" d="M799.477,126.111h24.978l-6.363,27.208h11.294l-3.659,15.273H814.59l-10.341,44.389
	c-0.318,1.43-0.638,3.498-0.638,4.929c0,4.457,3.183,4.457,10.342,4.457l-3.659,16.23c-22.272,0-33.887,0-33.887-12.728
	c0-2.708,0.477-4.778,1.431-8.275l11.774-49.002H779.43l3.501-15.273h10.341L799.477,126.111z"/>
<path fill="#66BC7E" d="M945.691,168.909h-26.09l3.021-13.205c0.321-1.113,0.479-2.385,0.479-3.659c0-6.362-4.775-7.159-8.436-7.159
	c-6.521,0-7.795,3.182-9.066,6.683l-13.365,57.595c-0.479,1.906-0.954,3.976-0.954,5.889c0,5.565,5.407,6.203,7.793,6.203
	c7.003,0,8.751-4.775,9.549-7.001c1.911-5.41,3.341-11.935,4.612-17.979h27.845l-3.979,16.23
	c-4.931,20.204-11.933,28.321-39.459,28.321c-7.158,0-13.679-0.639-19.247-2.868c-5.57-2.226-14.479-7.795-14.479-19.409
	c0-1.749,0-5.252,2.546-15.75l10.817-47.251c3.502-15.434,7.797-21.161,12.57-24.662c7.477-5.567,20.045-6.521,27.045-6.521
	c6.842,0,15.432,0.954,21.003,3.339c5.409,2.388,12.091,7.32,12.091,19.411c0,2.386-0.318,5.092-0.952,7.954L945.691,168.909z"/>
<path fill="#66BC7E" d="M1021.589,174.477c0,8.91-6.844,37.231-9.229,44.545c-3.02,8.915-7.956,21.482-33.407,21.482
	c-19.095,0-31.344-6.365-31.344-23.069c0-9.231,7.16-37.388,8.59-41.845c2.707-9.067,8.114-24.499,32.615-24.499
	C1001.542,151.092,1021.589,153.159,1021.589,174.477z M996.453,177.82c0.316-1.115,0.474-2.229,0.474-3.343
	c0.161-4.133-3.022-6.363-6.841-6.363c-6.84,0-8.272,5.887-9.07,9.706l-7.953,34.049c-0.316,1.426-0.637,3.183-0.637,4.93
	c0,3.342,1.911,6.521,6.842,6.521c6.842,0,8.114-5.568,9.546-11.451L996.453,177.82z"/>
<path fill="#66BC7E" d="M1041.159,153.319h25.302l-19.731,85.278h-25.136L1041.159,153.319z M1072.663,126.272l-4.296,19.092
	h-25.294l4.454-19.092H1072.663z"/>
<path fill="#66BC7E" d="M1126.76,238.597h-25.296l13.684-59.982c0.478-1.909,0.478-3.339,0.478-3.977
	c0-6.046-5.253-6.046-5.888-6.046c-7.317,0-9.071,7.638-9.546,10.182l-13.844,59.823h-24.815l19.565-85.278h24.98l-2.068,8.433
	c9.543-10.024,19.887-10.343,22.592-10.343c4.771,0,15.909,1.59,15.909,15.435c0,3.022-0.477,5.726-1.113,8.274L1126.76,238.597z"/>
<path fill="#156D6A" d="M682.538,264.037h30.996l-4.965,81.407c1.356-5.87,3.612-15.949,7.072-26.485l18.056-54.922h25.729
	l-38.971,106.237h-32.202c0.905-22.269,1.054-26.788,1.507-40.327c0.3-14.446,0.75-20.768,2.409-38.975
	c-5.121,16.401-6.172,18.958-15.953,42.434l-15.499,36.868h-32.955l9.481-106.237h25.279l-5.116,36.565
	c-0.45,2.858-2.259,16.552-2.709,19.559c-1.954,14.147-3.312,20.017-4.815,26.788c2.559-7.825,4.366-12.641,5.117-14.599
	L682.538,264.037z"/>
<path fill="#156D6A" d="M803.376,361.093c-0.148,1.203-0.451,2.406-0.451,3.611c0,3.611,1.055,4.365,2.255,5.569h-27.385
	l2.108-8.429c-5.418,4.665-12.189,10.536-21.671,10.536c-1.652,0-15.949,0-15.949-14.6c0-4.963,3.16-19.108,8.125-24.829
	c4.968-5.718,12.189-7.823,40.33-15.95c0.751-3.158,1.803-8.274,1.803-9.478c0-4.214-3.911-4.516-6.469-4.516
	c-6.771,0-7.976,3.61-10.231,11.737h-22.875c3.462-13.995,5.267-18.657,12.642-22.422c5.565-2.857,13.241-4.212,21.668-4.212
	c13.843,0,28.142,3.461,28.142,17.607c0,3.008-0.605,6.017-1.355,9.026L803.376,361.093z M787.275,332.5
	c-5.417,1.658-12.337,3.766-15.199,6.021c-3.91,3.161-4.965,11.739-4.965,13.239c0,2.712,1.204,4.968,5.269,4.968
	c4.212,0,7.371-2.557,9.929-4.814L787.275,332.5z"/>
<path fill="#156D6A" d="M839.042,264.037h24.075l-24.528,106.237h-24.073L839.042,264.037z"/>
<path fill="#156D6A" d="M876.664,264.037h24.077l-24.528,106.237h-24.075L876.664,264.037z"/>
<path fill="#156D6A" d="M959.127,344.239c-1.503,6.021-3.158,13.092-8.127,18.508c-4.813,5.569-12.79,9.635-26.935,9.635
	c-4.063,0-15.348-0.604-22.42-6.172c-3.459-2.71-6.619-6.922-6.619-15.502c0-10.681,7.672-40.324,10.231-46.345
	c2.707-6.469,9.028-16.702,30.997-16.702c9.63,0,28.44,1.807,28.44,19.713c0,3.31-0.602,6.771-1.354,10.233
	c-1.204,5.869-2.406,11.284-3.912,18.058h-38.521c-1.203,4.662-2.707,11.284-2.707,14.745c0,0.751,0.147,1.655,0.449,2.409
	c1.055,1.804,3.459,3.006,6.619,3.006c6.772,0,7.676-4.664,9.331-11.586H959.127z M939.715,320.917
	c0.603-2.558,2.107-8.881,2.107-10.987c0-1.503-0.3-3.007-1.202-4.061c-1.506-1.807-4.215-2.106-5.718-2.106
	c-7.375,0-8.429,5.416-10.687,17.154H939.715z"/>
<path fill="#156D6A" d="M991.033,263.884h23.626l-6.021,25.733h10.687l-3.461,14.445h-10.533l-9.781,41.984
	c-0.298,1.352-0.602,3.309-0.602,4.66c0,4.216,3.01,4.216,9.781,4.216l-3.461,15.351c-21.069,0-32.054,0-32.054-12.038
	c0-2.561,0.452-4.519,1.357-7.826l11.134-46.347h-9.631l3.312-14.445h9.78L991.033,263.884z"/>
</svg>
