<?xml version="1.0" encoding="utf-8"?>
<!-- Generator: Adobe Illustrator 13.0.0, SVG Export Plug-In . SVG Version: 6.00 Build 14948)  -->
<!DOCTYPE svg PUBLIC "-//W3C//DTD SVG 1.1//EN" "http://www.w3.org/Graphics/SVG/1.1/DTD/svg11.dtd">
<svg version="1.1" id="Layer_1" xmlns="http://www.w3.org/2000/svg" xmlns:xlink="http://www.w3.org/1999/xlink" x="0px" y="0px"
	 width="884.221px" height="115.956px" viewBox="0 0 884.221 115.956" enable-background="new 0 0 884.221 115.956"
	 xml:space="preserve">
<g>
	<g>
		<path fill="#66BC7E" d="M190.253,39.049h-19.57v58.519h-11.305V39.049h-19.522v-9.595h50.397V39.049z"/>
		<path fill="#66BC7E" d="M219.274,59.426c-1.329-1.044-3.246-1.567-5.747-1.567c-3.262,0-5.985,1.473-8.17,4.418
			s-3.277,6.951-3.277,12.018v23.273h-11.02V48.929h11.02v10.022h0.189c1.076-3.419,2.731-6.086,4.964-8.003
			c2.232-1.915,4.727-2.873,7.481-2.873c1.995,0,3.515,0.301,4.56,0.902V59.426z"/>
		<path fill="#66BC7E" d="M269.482,97.568h-11.021v-7.695h-0.189c-3.199,5.891-8.17,8.836-14.915,8.836
			c-11.495,0-17.242-6.902-17.242-20.709V48.929h11.02v27.93c0,8.74,3.373,13.109,10.117,13.109c3.262,0,5.945-1.203,8.052-3.609
			c2.105-2.406,3.158-5.559,3.158-9.453V48.929h11.021V97.568z"/>
		<path fill="#66BC7E" d="M280.787,96.049V85.836c4.116,3.135,8.66,4.703,13.632,4.703c6.65,0,9.975-1.963,9.975-5.891
			c0-1.107-0.284-2.049-0.854-2.826c-0.57-0.775-1.338-1.463-2.304-2.066c-0.967-0.6-2.106-1.139-3.42-1.615
			c-1.314-0.475-2.779-1.012-4.394-1.613c-1.995-0.791-3.793-1.631-5.392-2.518c-1.6-0.887-2.93-1.893-3.99-3.018
			c-1.061-1.123-1.86-2.398-2.398-3.822c-0.539-1.426-0.808-3.088-0.808-4.988c0-2.344,0.554-4.41,1.663-6.199
			c1.107-1.788,2.596-3.293,4.465-4.513c1.868-1.219,3.989-2.137,6.364-2.755c2.375-0.617,4.829-0.926,7.363-0.926
			c4.496,0,8.518,0.681,12.064,2.042v9.643c-3.42-2.343-7.347-3.515-11.78-3.515c-1.394,0-2.652,0.143-3.775,0.428
			c-1.125,0.284-2.083,0.681-2.874,1.188c-0.792,0.507-1.409,1.116-1.853,1.828c-0.444,0.713-0.665,1.496-0.665,2.352
			c0,1.045,0.221,1.932,0.665,2.66c0.443,0.729,1.1,1.371,1.971,1.924c0.871,0.555,1.916,1.061,3.136,1.52
			c1.219,0.459,2.619,0.959,4.203,1.496c2.09,0.855,3.967,1.727,5.629,2.613s3.079,1.893,4.251,3.016
			c1.172,1.125,2.074,2.424,2.708,3.895c0.633,1.473,0.95,3.223,0.95,5.25c0,2.469-0.57,4.623-1.71,6.459
			c-1.141,1.838-2.66,3.357-4.561,4.561c-1.899,1.203-4.093,2.098-6.578,2.684c-2.486,0.586-5.106,0.879-7.861,0.879
			C289.289,98.709,284.682,97.822,280.787,96.049z"/>
		<path fill="#66BC7E" d="M351.418,97.047c-2.154,1.076-4.987,1.615-8.503,1.615c-9.437,0-14.154-4.529-14.154-13.586V57.575h-8.123
			v-8.646h8.123V37.672l11.02-3.136v14.393h11.638v8.646H339.78v24.32c0,2.881,0.522,4.939,1.567,6.174
			c1.045,1.236,2.786,1.854,5.226,1.854c1.868,0,3.482-0.539,4.845-1.615V97.047z"/>
		<path fill="#66BC7E" d="M436.396,94.719c-5.13,2.66-11.512,3.99-19.143,3.99c-9.88,0-17.797-3.119-23.75-9.357
			s-8.93-14.424-8.93-24.557c0-10.894,3.349-19.697,10.046-26.411c6.697-6.713,15.16-10.069,25.389-10.069
			c6.586,0,12.049,0.934,16.388,2.802v11.21c-4.592-2.723-9.659-4.085-15.2-4.085c-7.379,0-13.355,2.359-17.931,7.078
			c-4.576,4.719-6.864,11.02-6.864,18.905c0,7.504,2.138,13.482,6.413,17.93c4.274,4.451,9.896,6.674,16.862,6.674
			c6.428,0,12.001-1.52,16.72-4.559V94.719z"/>
		<path fill="#66BC7E" d="M469.645,98.709c-7.506,0-13.498-2.271-17.979-6.816c-4.482-4.543-6.723-10.568-6.723-18.074
			c0-8.17,2.336-14.549,7.008-19.141c4.67-4.592,10.963-6.888,18.881-6.888c7.6,0,13.52,2.232,17.764,6.697
			c4.244,4.464,6.365,10.656,6.365,18.572c0,7.76-2.287,13.973-6.863,18.645C483.522,96.373,477.37,98.709,469.645,98.709z
			 M470.167,56.577c-4.307,0-7.711,1.505-10.213,4.513c-2.5,3.008-3.752,7.156-3.752,12.443c0,5.1,1.266,9.113,3.801,12.043
			c2.533,2.928,5.92,4.393,10.164,4.393c4.338,0,7.672-1.439,10-4.322c2.326-2.881,3.49-6.982,3.49-12.303
			c0-5.352-1.164-9.482-3.49-12.396C477.838,58.034,474.504,56.577,470.167,56.577z"/>
		<path fill="#66BC7E" d="M511.729,38.717c-1.805,0-3.35-0.586-4.631-1.758c-1.283-1.171-1.924-2.66-1.924-4.465
			s0.641-3.309,1.924-4.513c1.281-1.203,2.826-1.805,4.631-1.805c1.867,0,3.451,0.602,4.75,1.805
			c1.299,1.204,1.947,2.708,1.947,4.513c0,1.71-0.648,3.175-1.947,4.394C515.18,38.108,513.596,38.717,511.729,38.717z
			 M517.192,97.568h-11.02V48.929h11.02V97.568z"/>
		<path fill="#66BC7E" d="M574.903,97.568h-11.02V70.162c0-9.088-3.215-13.633-9.643-13.633c-3.357,0-6.127,1.259-8.313,3.776
			c-2.186,2.518-3.277,5.693-3.277,9.525v27.738h-11.066V48.929h11.066v8.075h0.189c3.643-6.144,8.898-9.215,15.77-9.215
			c5.289,0,9.326,1.718,12.113,5.153c2.787,3.437,4.18,8.401,4.18,14.891V97.568z"/>
		<path fill="#156D6A" d="M700.825,29.455l-18.666,68.114h-12.777l-12.969-47.641c-0.539-2.026-0.871-4.243-0.998-6.65h-0.189
			c-0.158,2.249-0.539,4.434-1.139,6.555l-13.016,47.737h-13.063l-19.047-68.114h12.396l12.35,49.874
			c0.508,2.092,0.824,4.275,0.951,6.557h0.236c0.127-1.615,0.57-3.801,1.33-6.557l13.965-49.874h11.639l12.92,50.254
			c0.441,1.711,0.775,3.736,0.996,6.08h0.191c0.094-1.584,0.457-3.674,1.092-6.27l12.113-50.065H700.825z"/>
		<path fill="#156D6A" d="M742.624,97.568h-10.688v-7.6h-0.189c-3.357,5.826-8.281,8.74-14.771,8.74
			c-4.783,0-8.527-1.299-11.234-3.895c-2.707-2.598-4.061-6.033-4.061-10.309c0-9.182,5.287-14.535,15.865-16.055l14.439-2.043
			c0-6.934-3.295-10.402-9.881-10.402c-5.795,0-11.02,1.995-15.674,5.986v-9.643c5.129-3.04,11.051-4.56,17.764-4.56
			c12.287,0,18.43,6.049,18.43,18.144V97.568z M731.985,73.676l-10.213,1.426c-3.166,0.412-5.551,1.18-7.148,2.305
			c-1.6,1.123-2.398,3.094-2.398,5.912c0,2.059,0.736,3.746,2.209,5.059c1.471,1.314,3.443,1.973,5.912,1.973
			c3.357,0,6.135-1.18,8.338-3.539c2.199-2.359,3.301-5.328,3.301-8.906V73.676z"/>
		<path fill="#156D6A" d="M767.135,97.568h-11.068V25.56h11.068V97.568z"/>
		<path fill="#156D6A" d="M792.547,97.568h-11.068V25.56h11.068V97.568z"/>
		<path fill="#156D6A" d="M848.073,76.242h-33.154c0.127,4.496,1.512,7.963,4.156,10.402c2.645,2.438,6.277,3.656,10.9,3.656
			c5.193,0,9.959-1.551,14.299-4.654v8.883c-4.434,2.787-10.293,4.18-17.576,4.18c-7.156,0-12.77-2.209-16.838-6.627
			c-4.07-4.416-6.104-10.631-6.104-18.643c0-7.568,2.24-13.734,6.721-18.501c4.48-4.766,10.047-7.148,16.697-7.148
			c6.648,0,11.795,2.138,15.436,6.412c3.643,4.275,5.463,10.212,5.463,17.812V76.242z M837.434,68.451
			c-0.033-3.957-0.967-7.037-2.803-9.238c-1.838-2.201-4.371-3.301-7.6-3.301c-3.168,0-5.852,1.156-8.053,3.467
			c-2.201,2.313-3.555,5.336-4.061,9.072H837.434z"/>
		<path fill="#156D6A" d="M884.221,97.047c-2.154,1.076-4.988,1.615-8.504,1.615c-9.436,0-14.154-4.529-14.154-13.586V57.575h-8.123
			v-8.646h8.123V37.672l11.02-3.136v14.393h11.639v8.646h-11.639v24.32c0,2.881,0.523,4.939,1.568,6.174
			c1.045,1.236,2.785,1.854,5.225,1.854c1.869,0,3.482-0.539,4.846-1.615V97.047z"/>
	</g>
</g>
<g>
	<rect x="1.757" y="34.079" fill="#FFFFFF" width="114.034" height="47.985"/>
	<polygon fill="#66BC7E" points="1.207,81.787 1.207,81.788 34.861,115.441 68.525,81.787 	"/>
	<g>
		<g>
			<polygon fill="#156D6A" points="116.155,34.17 68.525,81.787 34.861,115.441 34.875,115.456 82.49,115.456 116.159,81.788 
				116.159,34.173 			"/>
		</g>
	</g>
	<polygon fill="#156D6A" points="116.159,34.169 116.159,34.168 82.504,0.515 48.84,34.169 	"/>
	<g>
		<g>
			<polygon fill="#66BC7E" points="82.49,0.5 34.875,0.5 1.207,34.168 1.207,81.783 1.21,81.787 48.84,34.169 82.504,0.515 			"/>
		</g>
	</g>
</g>
</svg>
